<svg width="96" height="23" viewBox="0 0 96 23" fill="none" xmlns="http://www.w3.org/2000/svg">
<path d="M7.416 18.336C6.12 18.336 4.976 18.104 3.984 17.64C2.992 17.176 2.216 16.512 1.656 15.648C1.096 14.784 0.816 13.744 0.816 12.528V11.856H3.936V12.528C3.936 13.536 4.248 14.296 4.872 14.808C5.496 15.304 6.344 15.552 7.416 15.552C8.504 15.552 9.312 15.336 9.84 14.904C10.384 14.472 10.656 13.92 10.656 13.248C10.656 12.784 10.52 12.408 10.248 12.12C9.992 11.832 9.608 11.6 9.096 11.424C8.6 11.232 7.992 11.056 7.272 10.896L6.72 10.776C5.568 10.52 4.576 10.2 3.744 9.816C2.928 9.416 2.296 8.896 1.848 8.256C1.416 7.616 1.2 6.784 1.2 5.76C1.2 4.736 1.44 3.864 1.92 3.144C2.416 2.408 3.104 1.848 3.984 1.464C4.88 1.064 5.928 0.863999 7.128 0.863999C8.328 0.863999 9.392 1.072 10.32 1.488C11.264 1.888 12 2.496 12.528 3.312C13.072 4.112 13.344 5.12 13.344 6.336V7.056H10.224V6.336C10.224 5.696 10.096 5.184 9.84 4.8C9.6 4.4 9.248 4.112 8.784 3.936C8.32 3.744 7.768 3.648 7.128 3.648C6.168 3.648 5.456 3.832 4.992 4.2C4.544 4.552 4.32 5.04 4.32 5.664C4.32 6.08 4.424 6.432 4.632 6.72C4.856 7.008 5.184 7.248 5.616 7.44C6.048 7.632 6.6 7.8 7.272 7.944L7.824 8.064C9.024 8.32 10.064 8.648 10.944 9.048C11.84 9.448 12.536 9.976 13.032 10.632C13.528 11.288 13.776 12.128 13.776 13.152C13.776 14.176 13.512 15.08 12.984 15.864C12.472 16.632 11.736 17.24 10.776 17.688C9.832 18.12 8.712 18.336 7.416 18.336ZM15.5147 22.8V6.096H18.4907V7.536H18.9227C19.1947 7.072 19.6187 6.664 20.1947 6.312C20.7707 5.944 21.5947 5.76 22.6667 5.76C23.6267 5.76 24.5147 6 25.3307 6.48C26.1467 6.944 26.8027 7.632 27.2987 8.544C27.7947 9.456 28.0427 10.56 28.0427 11.856V12.24C28.0427 13.536 27.7947 14.64 27.2987 15.552C26.8027 16.464 26.1467 17.16 25.3307 17.64C24.5147 18.104 23.6267 18.336 22.6667 18.336C21.9467 18.336 21.3387 18.248 20.8427 18.072C20.3627 17.912 19.9707 17.704 19.6667 17.448C19.3787 17.176 19.1467 16.904 18.9707 16.632H18.5387V22.8H15.5147ZM21.7547 15.696C22.6987 15.696 23.4747 15.4 24.0827 14.808C24.7067 14.2 25.0187 13.32 25.0187 12.168V11.928C25.0187 10.776 24.7067 9.904 24.0827 9.312C23.4587 8.704 22.6827 8.4 21.7547 8.4C20.8267 8.4 20.0507 8.704 19.4267 9.312C18.8027 9.904 18.4907 10.776 18.4907 11.928V12.168C18.4907 13.32 18.8027 14.2 19.4267 14.808C20.0507 15.4 20.8267 15.696 21.7547 15.696ZM35.5234 18.336C34.3394 18.336 33.2914 18.088 32.3794 17.592C31.4834 17.08 30.7794 16.368 30.2674 15.456C29.7714 14.528 29.5234 13.44 29.5234 12.192V11.904C29.5234 10.656 29.7714 9.576 30.2674 8.664C30.7634 7.736 31.4594 7.024 32.3554 6.528C33.2514 6.016 34.2914 5.76 35.4754 5.76C36.6434 5.76 37.6594 6.024 38.5234 6.552C39.3874 7.064 40.0594 7.784 40.5394 8.712C41.0194 9.624 41.2594 10.688 41.2594 11.904V12.936H32.5954C32.6274 13.752 32.9314 14.416 33.5074 14.928C34.0834 15.44 34.7874 15.696 35.6194 15.696C36.4674 15.696 37.0914 15.512 37.4914 15.144C37.8914 14.776 38.1954 14.368 38.4034 13.92L40.8754 15.216C40.6514 15.632 40.3234 16.088 39.8914 16.584C39.4754 17.064 38.9154 17.48 38.2114 17.832C37.5074 18.168 36.6114 18.336 35.5234 18.336ZM32.6194 10.68H38.1874C38.1234 9.992 37.8434 9.44 37.3474 9.024C36.8674 8.608 36.2354 8.4 35.4514 8.4C34.6354 8.4 33.9874 8.608 33.5074 9.024C33.0274 9.44 32.7314 9.992 32.6194 10.68ZM43.2309 18V6.096H46.2069V7.656H46.6389C46.8309 7.24 47.1909 6.848 47.7189 6.48C48.2469 6.096 49.0469 5.904 50.1189 5.904C51.0469 5.904 51.8549 6.12 52.5429 6.552C53.2469 6.968 53.7909 7.552 54.1749 8.304C54.5589 9.04 54.7509 9.904 54.7509 10.896V18H51.7269V11.136C51.7269 10.24 51.5029 9.568 51.0549 9.12C50.6229 8.672 49.9989 8.448 49.1829 8.448C48.2549 8.448 47.5349 8.76 47.0229 9.384C46.5109 9.992 46.2549 10.848 46.2549 11.952V18H43.2309ZM62.1 18.336C61.156 18.336 60.268 18.104 59.436 17.64C58.62 17.16 57.964 16.464 57.468 15.552C56.972 14.64 56.724 13.536 56.724 12.24V11.856C56.724 10.56 56.972 9.456 57.468 8.544C57.964 7.632 58.62 6.944 59.436 6.48C60.252 6 61.14 5.76 62.1 5.76C62.82 5.76 63.42 5.848 63.9 6.024C64.396 6.184 64.796 6.392 65.1 6.648C65.404 6.904 65.636 7.176 65.796 7.464H66.228V1.2H69.252V18H66.276V16.56H65.844C65.572 17.008 65.148 17.416 64.572 17.784C64.012 18.152 63.188 18.336 62.1 18.336ZM63.012 15.696C63.94 15.696 64.716 15.4 65.34 14.808C65.964 14.2 66.276 13.32 66.276 12.168V11.928C66.276 10.776 65.964 9.904 65.34 9.312C64.732 8.704 63.956 8.4 63.012 8.4C62.084 8.4 61.308 8.704 60.684 9.312C60.06 9.904 59.748 10.776 59.748 11.928V12.168C59.748 13.32 60.06 14.2 60.684 14.808C61.308 15.4 62.084 15.696 63.012 15.696ZM73.8047 18.336C73.1487 18.336 72.5967 18.128 72.1487 17.712C71.7167 17.28 71.5007 16.728 71.5007 16.056C71.5007 15.384 71.7167 14.84 72.1487 14.424C72.5967 13.992 73.1487 13.776 73.8047 13.776C74.4447 13.776 74.9807 13.992 75.4127 14.424C75.8447 14.84 76.0607 15.384 76.0607 16.056C76.0607 16.728 75.8447 17.28 75.4127 17.712C74.9807 18.128 74.4447 18.336 73.8047 18.336ZM78.2171 18V1.2H81.3851V18H78.2171ZM83.9212 18V6.096H86.8972V7.656H87.3292C87.5212 7.24 87.8812 6.848 88.4092 6.48C88.9372 6.096 89.7372 5.904 90.8092 5.904C91.7372 5.904 92.5452 6.12 93.2332 6.552C93.9372 6.968 94.4812 7.552 94.8652 8.304C95.2492 9.04 95.4412 9.904 95.4412 10.896V18H92.4172V11.136C92.4172 10.24 92.1932 9.568 91.7452 9.12C91.3132 8.672 90.6892 8.448 89.8732 8.448C88.9452 8.448 88.2252 8.76 87.7132 9.384C87.2012 9.992 86.9452 10.848 86.9452 11.952V18H83.9212Z" fill="#E7DEFE"/>
</svg>
